# xmcd
#
# Track frame offsets:
#	150
#	20641
#	39790
#	57238
#	74327
#	98244
#	156214
#	197041
#	235864
#	255244
#	271126
#	285112
#
# Disc length: 4218 seconds
#
# Revision: 1
# Processed by: cddbd v1.5.1PL2 Copyright (c) Steve Scherf et al.
# Submitted via: MusicWizard 7.0.2
#
DISCID=9610780c
DTITLE=Allman Brothers Band - 1971-08-26 A and R Studios  Ny
DYEAR=1900
DGENRE=
TTITLE0=Statesboro Blues
TTITLE1=Trouble No More
TTITLE2=Don't Keep Me Wonderin'
TTITLE3=Done Somebody Wrong
TTITLE4=One Way Out
TTITLE5=In Memory Of Elizabeth Reed
TTITLE6=Stormy Monday
TTITLE7=You Don't Love Me (In Memory Of King Curtis)
TTITLE8=Soul Serenade
TTITLE9=Jam
TTITLE10=Mountain Jam
TTITLE11=Intro's (Hot 'lanta)
EXTD=
EXTT0=
EXTT1=
EXTT2=
EXTT3=
EXTT4=
EXTT5=
EXTT6=
EXTT7=
EXTT8=
EXTT9=
EXTT10=
EXTT11=
PLAYORDER=
